# xmcd
#
# Track frame offsets:
#	150
#	21621
#	45442
#	74256
#	98762
#	126063
#	149748
#	170978
#	189126
#	214087
#	241965
#	263390
#
# Disc length: 3749 seconds
#
# Revision: 2
# Processed by: cddbd v1.5.2PL0 Copyright (c) Steve Scherf et al.
# Submitted via: audiograbber 1.83.01
#
DISCID=ac0ea30c
DTITLE=Uriah Heep - Between Two Worlds [CD1]
DYEAR=2005
DGENRE=Rock
TTITLE0=Heartless Land
TTITLE1=Perfect Little Heart
TTITLE2=In The Moment
TTITLE3=Question
TTITLE4=Change
TTITLE5=Across The Miles
TTITLE6=Sweet Sugar
TTITLE7=Time Of Revelation
TTITLE8=Mistress Of All Time
TTITLE9=Logical Progression
TTITLE10=Words In The Distance
TTITLE11=Fires Of Hell
EXTD=
EXTT0=
EXTT1=
EXTT2=
EXTT3=
EXTT4=
EXTT5=
EXTT6=
EXTT7=
EXTT8=
EXTT9=
EXTT10=
EXTT11=
PLAYORDER=
